<svg xmlns="http://www.w3.org/2000/svg" viewBox="0 0 113 53">
  <path d="M2.9 21v-7.2H.3v-1.3H7v1.3H4.4V21zm10.7-2.2h-3.2L9.8 21H8.2l3-8.5h1.7l3 8.5h-1.6zm-2.8-1.2h2.4L12 14zm8.8 3.4v-7.2H17v-1.3h6.7v1.3H21V21zM32 15H32l-4 6h-1.5v-8.5H28v6.1l4.1-6h1.5V21H32zm10.4 6v-3.7h-4.2V21h-1.5v-8.5h1.5v3.6h4.1v-3.6H44V21zm4.7 0v-8.5h3.6a2.8 2.8 0 011.8.6 1.9 1.9 0 01.7 1.5A1.8 1.8 0 0153 16a1.8 1.8 0 01-1.1.6 2.2 2.2 0 011.4.7 2 2 0 01.5 1.4 2.2 2.2 0 01-.7 1.8 3.2 3.2 0 01-2.1.6zm1.5-4.9h1.5a2 2 0 001.2-.3 1 1 0 00.4-1 1 1 0 00-.3-.8 1.6 1.6 0 00-1-.3h-1.7zm1.8 3.7c1.1 0 1.7-.4 1.7-1.3s-.6-1.3-1.8-1.3h-1.7v2.6zM62 21h-5.5v-8.5H62v1.3h-4v2.3h3.7v1.2H58v2.4h4zm6.7.2a3.7 3.7 0 01-2.9-1.2 4.7 4.7 0 01-1-3.2 4.6 4.6 0 011-3.2 3.6 3.6 0 012.9-1.2 3.8 3.8 0 012.4.8 3.2 3.2 0 011.2 2.1h-1.5a2 2 0 00-.8-1.2 2.2 2.2 0 00-1.3-.4 2.1 2.1 0 00-1.8.8 3.6 3.6 0 00-.6 2.3A3.6 3.6 0 0067 19a2.1 2.1 0 001.8.8 2.3 2.3 0 001.3-.4 2 2 0 00.8-1h1.5a3.3 3.3 0 01-1.2 2 3.9 3.9 0 01-2.5.8zm8.2-.2v-7.2h-2.6v-1.3H81v1.3h-2.6V21zM6.4 41v-7.2h-4V41H.8v-8.5h7V41zm8-8.5a2.8 2.8 0 012 .8 2.8 2.8 0 01.9 2 2.7 2.7 0 01-.8 2 3 3 0 01-2.1.9h-1.8V41H11v-8.5zM12.7 37H14a1.7 1.7 0 001.2-.4 1.5 1.5 0 00.5-1.2 1.6 1.6 0 00-.5-1.2 1.8 1.8 0 00-1.2-.4h-1.5zm11.3-4.6a3.8 3.8 0 012.9 1.2 4.6 4.6 0 011 3.2 4.5 4.5 0 01-1 3.2 3.8 3.8 0 01-3 1.2A3.8 3.8 0 0121 40a4.5 4.5 0 01-1-3.2 4.6 4.6 0 011-3.2 3.8 3.8 0 013-1.2zm0 1.3a2.2 2.2 0 00-1.8.8 3.5 3.5 0 00-.7 2.3 3.5 3.5 0 00.7 2.2 2.4 2.4 0 003.6 0 3.5 3.5 0 00.6-2.2 3.5 3.5 0 00-.6-2.3 2.2 2.2 0 00-1.8-.8zM39.5 41h-1.4v-6l-2.4 6h-1l-2.5-6v6h-1.4v-8.5h1.7l2.6 6.4 2.6-6.4h1.8zm3.3 0v-8.5h5.3v1.3h-3.8V41zm11.4-8.5a2.7 2.7 0 012.9 2.9 2.7 2.7 0 01-.8 2 3 3 0 01-2.1.8h-1.9V41h-1.5v-8.5zM52.3 37H54a1.7 1.7 0 001.2-.4 1.8 1.8 0 000-2.4 1.7 1.7 0 00-1.3-.4h-1.4zm11.8 1.8H61l-.8 2.2h-1.5l3-8.5h1.7l3 8.5h-1.6zm-2.8-1.1h2.4L62.5 34zM79.9 41H78l-3.2-3.9V41h-1.5v-3.9L70.1 41h-1.8l3.6-4.4-3.4-4h1.8l3 3.6v-3.7h1.5v3.7l3-3.7h1.7l-3.4 4zm4.7-3.4a3.7 3.7 0 01-.5 2h3.7v-5.8h-3zm-1.4 5h-1.4v-3h.6c.5-.2.8-1 .8-2.1l.3-5h5.8v7.1h1v3h-1.4V41h-5.8zm14.6-3.8h-3.1l-.8 2.2h-1.5l3-8.5H97l3 8.5h-1.6zM95 37.7h2.4L96.2 34zm13.3 3.3v-3.7h-4.1V41h-1.5v-8.5h1.5v3.6h4v-3.6h1.6V41z"/>
  <path d="M0 .5h56v1H0z"/>
  <path d="M52 51.5h59v1H52z"/>
  <path fill="#fb7953" d="M52 51.5h12.5v1H52z"/>
</svg>