
<svg xmlns="http://www.w3.org/2000/svg" viewBox="0 0 113 53">
  <defs>
    <style>
      .cls-1{fill:#fff}.cls-2{opacity:.3}
    </style>
  </defs>
  <path class="cls-1" d="M2.9 21.1v-7.2H.3v-1.3H7V14H4.4v7.2zm10.6-2.2h-3l-.8 2.2H8.2l3-8.5h1.7l3 8.5h-1.6zm-2.7-1.2h2.4L12 14.1zm8.8 3.4v-7.2H17v-1.3h6.6V14h-2.5v7.2zM32 15H32l-4.1 6h-1.4v-8.4H28v6.1l4-6h1.6V21H32zm10.3 6v-3.6h-4V21h-1.6v-8.5h1.5V16h4.1v-3.4H44L44 21zm4.8 0v-8.5h3.6a2.8 2.8 0 011.8.6 2 2 0 01.7 1.5A1.8 1.8 0 0153 16a1.8 1.8 0 01-1.1.6 2.2 2.2 0 011.4.7 2 2 0 01.5 1.4 2.2 2.2 0 01-.7 1.8 3.3 3.3 0 01-2.1.6zm1.5-4.9h1.4a2 2 0 001.3-.3 1 1 0 00.4-1 1 1 0 00-.4-.8 1.6 1.6 0 00-1-.3h-1.7zm1.8 3.7c1.1 0 1.7-.4 1.7-1.3s-.6-1.3-1.8-1.3h-1.7v2.6zM62 21h-5.5v-8.5H62v1.3h-4v2.3h3.7v1.2H58v2.4h4zm6.7.1a3.7 3.7 0 01-2.9-1.1 4.7 4.7 0 01-1-3.2 4.6 4.6 0 011-3.2 3.7 3.7 0 012.9-1.2 3.7 3.7 0 012.4.8 3.1 3.1 0 011.2 2h-1.5a2 2 0 00-.8-1.1 2.2 2.2 0 00-1.4-.4 2 2 0 00-1.7.8 3.6 3.6 0 00-.6 2.3 3.6 3.6 0 00.6 2.2 2.1 2.1 0 001.8.8 2.3 2.3 0 001.3-.4 1.9 1.9 0 00.8-1h1.5a3.2 3.2 0 01-1.2 2 3.9 3.9 0 01-2.4.7zm8.2-.1v-7.2h-2.6v-1.3h6.6v1.3h-2.5V21zM6.4 41.1v-7.2h-4v7.2H.9v-8.5h7v8.5zm8.1-8.5a2.8 2.8 0 012 .8 2.8 2.8 0 01.9 2 2.7 2.7 0 01-.9 2 3 3 0 01-2 .8h-1.9V41h-1.5v-8.4zm-1.9 4.5h1.5a1.7 1.7 0 001.3-.5 1.6 1.6 0 00.4-1.2 1.5 1.5 0 00-.4-1.1 1.8 1.8 0 00-1.3-.4h-1.5zM24 32.5a3.7 3.7 0 013 1.1 4.5 4.5 0 011 3.2 4.6 4.6 0 01-1 3.2 3.8 3.8 0 01-3 1.2A3.8 3.8 0 0121 40a4.5 4.5 0 01-1-3.2 4.6 4.6 0 011-3.1 3.8 3.8 0 012.9-1.2zm0 1.3a2.2 2.2 0 00-1.8.8 3.5 3.5 0 00-.7 2.2 3.5 3.5 0 00.7 2.3 2.2 2.2 0 001.8.8 2.2 2.2 0 001.8-.8 4.1 4.1 0 000-4.5 2.2 2.2 0 00-1.8-.8zM39.5 41h-1.3v-6l-2.5 6h-1l-2.5-6v6h-1.4v-8.4h1.8l2.6 6.4 2.5-6.4h1.8zm3.3 0v-8.4h5.3v1.2h-3.8V41zm11.5-8.5a2.8 2.8 0 012 .8 2.8 2.8 0 01.8 2 2.7 2.7 0 01-.8 2 3 3 0 01-2.1.8h-1.8V41h-1.5v-8.5zm-2 4.5H54a1.8 1.8 0 001.2-.4 1.6 1.6 0 00.5-1.2 1.5 1.5 0 00-.5-1.2 1.8 1.8 0 00-1.2-.4h-1.5zm11.8 1.8H61l-.7 2.2h-1.6l3-8.5h1.7l3 8.5h-1.6zm-2.8-1.2h2.4L62.5 34zM80 41h-1.9l-3.2-3.9V41h-1.5v-3.9L70 41h-1.8l3.6-4.4-3.4-4h1.8l3 3.7v-3.7h1.5v3.6l3-3.7h1.8l-3.4 4zm4.7-3.4a3.6 3.6 0 01-.6 2v.1h3.7v-5.9h-3zm-1.5 5h-1.4v-3h.6c.5-.2.8-1 .8-2.1l.3-5h5.8v7.1h1v3H89V41h-5.8zm14.6-3.8h-3.1l-.7 2.1h-1.6l3-8.4h1.7l3 8.4h-1.6zM95 37.6h2.4L96.2 34zm13.3 3.3v-3.7h-4.1V41h-1.5v-8.5h1.5V36h4v-3.6h1.6V41z"/>
  <g class="cls-2">
    <path class="cls-1" transform="rotate(-.1 83.3 52.2)" d="M52 51.5h59v1H52z"/>
  </g>
  <g class="cls-2">
    <path class="cls-1" transform="rotate(-.1 26 0)" d="M-.1.6h56v1h-56z"/>
  </g>
  <path transform="rotate(-.1 57.2 52.1)" fill="#fb7953" d="M52 51.5h12.5v1H52z"/>
</svg>